<svg width="100" height="100" viewBox="0 0 100 100" fill="none" xmlns="http://www.w3.org/2000/svg">
<path d="M0 0H18.5185V18.5185H0V0Z" fill="#F74F9E"/>
<path d="M20.3704 0H38.8889V18.5185H20.3704V0Z" fill="#F74F9E"/>
<path d="M81.4815 81.4815H100V100H81.4815V81.4815Z" fill="#F74F9E"/>
<path d="M40.7407 0H59.2593V18.5185H40.7407V0Z" fill="#F74F9E"/>
<path d="M61.1111 0H79.6296V18.5185H61.1111V0Z" fill="#F74F9E"/>
<path d="M81.4815 0H100V18.5185H81.4815V0Z" fill="#F74F9E"/>
<path d="M0 20.3704H18.5185V38.8889H0V20.3704Z" fill="#F74F9E"/>
<path d="M20.3704 20.3704H38.8889V38.8889H20.3704V20.3704Z" fill="#F74F9E"/>
<path d="M0 40.7407H18.5185V59.2593H0V40.7407Z" fill="#F74F9E"/>
<path d="M40.7407 40.7407H59.2593V59.2593H40.7407V40.7407Z" fill="#F74F9E"/>
<path d="M61.1111 40.7407H79.6296V59.2593H61.1111V40.7407Z" fill="#F74F9E"/>
<path d="M81.4815 40.7407H100V59.2593H81.4815V40.7407Z" fill="#F74F9E"/>
<path d="M0 61.1111H18.5185V79.6296H0V61.1111Z" fill="#F74F9E"/>
<path d="M61.1111 61.1111H79.6296V79.6296H61.1111V61.1111Z" fill="#F74F9E"/>
<path d="M81.4815 61.1111H100V79.6296H81.4815V61.1111Z" fill="#F74F9E"/>
<path d="M0 81.4815H18.5185V100H0V81.4815Z" fill="#F74F9E"/>
<path d="M20.3704 81.4815H38.8889V100H20.3704V81.4815Z" fill="#F74F9E"/>
<path d="M40.7407 81.4815H59.2593V100H40.7407V81.4815Z" fill="#F74F9E"/>
<path d="M61.1111 81.4815H79.6296V100H61.1111V81.4815Z" fill="#F74F9E"/>
</svg>
